<svg class="svg-icon" style="width: 1em; height: 1em;vertical-align: middle;fill: currentColor;overflow: hidden;" viewBox="0 0 1024 1024" version="1.1" xmlns="http://www.w3.org/2000/svg"><path d="M699.733333 802.133333c-3.413333 0-6.826667 0-10.24-3.413333L512 686.08l-177.493333 112.64c-6.826667 3.413333-13.653333 3.413333-20.48 0s-6.826667-10.24-6.826667-17.066667l54.613333-225.28-184.32-150.186666c-6.826667-3.413333-6.826667-13.653333-6.826666-20.48s10.24-10.24 17.066666-10.24h228.693334l81.92-194.56c6.826667-13.653333 27.306667-13.653333 30.72 0l81.92 194.56h228.693333c6.826667 0 13.653333 3.413333 17.066667 10.24 3.413333 6.826667 0 13.653333-6.826667 20.48l-191.146667 150.186666 61.44 225.28c3.413333 6.826667 0 13.653333-6.826666 17.066667-6.826667 3.413333-10.24 3.413333-13.653334 3.413333zM235.52 409.6l153.6 126.293333c3.413333 3.413333 6.826667 10.24 6.826667 17.066667l-44.373334 194.56 153.6-95.573333c6.826667-3.413333 13.653333-3.413333 17.066667 0l150.186667 95.573333-51.2-191.146667c-3.413333-6.826667 0-13.653333 6.826666-17.066666l160.426667-126.293334h-191.146667c-6.826667 0-13.653333-3.413333-17.066666-10.24l-68.266667-167.253333-68.266667 167.253333c-3.413333 6.826667-10.24 10.24-17.066666 10.24H235.52z" fill="" /><path d="M512 1024C228.693333 1024 0 795.306667 0 512S228.693333 0 512 0s512 228.693333 512 512-228.693333 512-512 512z m0-989.866667C249.173333 34.133333 34.133333 249.173333 34.133333 512s215.04 477.866667 477.866667 477.866667 477.866667-215.04 477.866667-477.866667S774.826667 34.133333 512 34.133333z" fill="" /></svg>